<svg width="64" height="49" viewBox="0 0 64 49" fill="none" xmlns="http://www.w3.org/2000/svg">
<mask id="mask0_127_1496" style="mask-type:luminance" maskUnits="userSpaceOnUse" x="0" y="0" width="64" height="49">
<path d="M40 0.189941H24C10.7452 0.189941 0 10.9351 0 24.1899C0 37.4448 10.7452 48.1899 24 48.1899H40C53.2548 48.1899 64 37.4448 64 24.1899C64 10.9351 53.2548 0.189941 40 0.189941Z" fill="white"/>
</mask>
<g mask="url(#mask0_127_1496)">
<path d="M40 0.189941H24C10.7452 0.189941 0 10.9351 0 24.1899C0 37.4448 10.7452 48.1899 24 48.1899H40C53.2548 48.1899 64 37.4448 64 24.1899C64 10.9351 53.2548 0.189941 40 0.189941Z" fill="#EBEBEB"/>
<path fill-rule="evenodd" clip-rule="evenodd" d="M0 6.83301V18.083L22.5 29.333L0 40.583V51.833L22.5 40.583V51.833L45 40.583V18.083L22.5 6.83301V18.083L0 6.83301ZM22.5 18.083V40.583L45 29.333L22.5 18.083Z" fill="black"/>
</g>
</svg>
